<?xml version="1.0"?>
<svg version="1.1" xmlns="http://www.w3.org/2000/svg" width="400" height="120" style=""><path fill="#ffffff" d="M17.978515625,36.123046875q0-0.9765625,1.513671875-1.3916015625t2.490234375-0.4150390625q1.123046875,0,2.4658203125,0.29296875t1.6357421875,1.513671875q1.416015625,5.712890625,2.1728515625,11.6455078125t1.1474609375,11.9384765625t0.634765625,11.9384765625t0.537109375,11.7431640625q1.318359375-5.810546875,2.7099609375-11.5478515625t3.6376953125-11.4501953125l0-3.90625q0-2.490234375,1.7333984375-3.5888671875t4.6630859375-1.0986328125q0.29296875,0,1.3427734375,0.146484375t1.0498046875,0.9765625q-0.1953125,0.5859375-0.4638671875,1.123046875t-0.2685546875,1.171875q0,7.421875,1.7578125,15.2099609375t3.466796875,15.1611328125q0.9765625-6.298828125,2.24609375-12.548828125t2.63671875-12.451171875q1.806640625-8.30078125,2.7587890625-13.7939453125t1.806640625-8.69140625t1.85546875-4.541015625t2.8076171875-1.3427734375q1.123046875-0.09765625,2.099609375,0.390625t0.78125,1.611328125q-3.515625,16.9921875-6.5673828125,34.08203125t-6.2255859375,34.1796875q0,0.9765625,0.341796875,2.294921875t0.341796875,2.34375q0,0.5859375-0.537109375,0.9765625t-1.2939453125,0.6591796875t-1.66015625,0.3662109375t-1.5869140625,0.09765625q-1.513671875,0-3.173828125-0.4638671875t-2.1484375-2.6611328125q-1.708984375-7.6171875-3.1494140625-15.3076171875t-2.6611328125-15.5029296875q-0.390625,1.806640625-0.732421875,3.662109375t-0.634765625,3.759765625q-1.416015625,8.30078125-3.125,16.6015625t-1.708984375,16.796875q0,2.099609375-0.87890625,2.7099609375t-2.978515625,0.6103515625q-1.611328125,0-2.734375-0.537109375q-0.87890625-0.48828125-1.66015625-0.87890625q-0.68359375-0.390625-1.2451171875-0.9033203125t-0.5615234375-1.0009765625q-0.78125-10.595703125-1.0986328125-21.044921875t-0.7080078125-21.044921875q-0.390625-9.521484375-1.1474609375-19.0185546875t-1.6845703125-18.8720703125z M77.28857421875,109.31640625q0.1953125-10.205078125,0.8544921875-20.361328125t1.1474609375-20.361328125q0.09765625-3.90625,0.09765625-7.1044921875t0.3173828125-5.5419921875t1.171875-3.5888671875t2.8564453125-1.2451171875q1.708984375,0,2.587890625,0.48828125t1.3427734375,1.2451171875t0.5615234375,1.708984375t0.09765625,1.9287109375q0,1.416015625,0.09765625,2.8076171875t0.09765625,2.8076171875q0,10.302734375-0.5615234375,20.556640625t-0.5615234375,20.654296875q0,1.513671875,0.048828125,3.0517578125t0.048828125,3.1494140625q0,0.5859375-0.537109375,0.9765625t-1.3427734375,0.6591796875t-1.708984375,0.3662109375t-1.4892578125,0.09765625q-0.68359375,0-1.5380859375-0.09765625t-1.66015625-0.4150390625t-1.3671875-0.7568359375t-0.5615234375-1.025390625z M80.02294921875,43.10546875q0-0.48828125,0.146484375-1.0986328125t0.341796875-1.0986328125q0.09765625-0.5859375,0.29296875-2.001953125t0.7080078125-2.7587890625t1.416015625-2.392578125t2.5634765625-1.0498046875l0.927734375,0q0.78125,0.1953125,1.5869140625,0.48828125t0.8056640625,1.416015625q0,0.48828125-0.048828125,0.927734375t-0.146484375,0.9765625q-0.390625,2.880859375-0.7568359375,4.541015625t-0.8544921875,2.5146484375t-1.2451171875,1.0986328125t-1.9287109375,0.341796875q-0.390625,0-1.0498046875-0.048828125t-1.26953125-0.244140625t-1.0498046875-0.6103515625t-0.439453125-1.0009765625z M98.8056640625,46.083984375q0-0.5859375,0.5615234375-0.87890625t1.220703125-0.439453125t1.1962890625-0.146484375l0.537109375,0q1.708984375,0,2.4658203125,0.78125t1.8310546875,2.001953125q7.32421875,10.595703125,13.427734375,21.8017578125t11.767578125,22.6806640625q0.48828125-13.37890625,1.0009765625-26.9287109375t1.2939453125-26.8798828125q0-0.5859375,0.5615234375-0.9765625t1.26953125-0.5859375t1.4404296875-0.244140625t1.123046875-0.048828125q0.5859375,0,1.2939453125,0.048828125t1.416015625,0.29296875t1.171875,0.5859375t0.4638671875,0.927734375q0.1953125,2.099609375,0.2197265625,4.2236328125t0.0244140625,4.2236328125q0,15.72265625-0.68359375,30.810546875t-0.68359375,30.46875l0,3.515625q0,0.1953125-0.1953125,0.5859375q0.09765625,0.390625,0.29296875,0.8544921875t0.1953125,0.6591796875q0,0.78125-0.8056640625,1.171875t-1.7578125,0.6103515625t-1.6845703125,0.2197265625t-0.537109375,0q-2.490234375,0-4.19921875-1.3671875t-1.708984375-3.271484375q-3.61328125-8.10546875-7.2021484375-16.0888671875t-7.4951171875-15.8935546875q-2.490234375-4.98046875-5.0048828125-9.9853515625t-5.3955078125-9.6923828125q0.09765625,0.09765625,0.09765625,0.29296875q0.48828125,4.8828125,1.0498046875,9.7412109375t0.8544921875,9.7412109375q0.1953125,4.19921875,0.439453125,8.49609375t0.78125,8.49609375q0,1.611328125-1.0009765625,2.05078125t-2.3193359375,0.439453125q-1.123046875,0-2.1240234375-0.29296875t-1.1962890625-1.46484375q0-4.4921875-0.341796875-9.5458984375t-0.634765625-10.1806640625q-0.48828125-6.787109375-1.2939453125-13.7939453125t-0.8056640625-13.6962890625q0-0.29296875,0.048828125-0.6103515625t0.048828125-0.7080078125q-0.29296875-0.48828125-0.6591796875-1.025390625t-0.3662109375-0.9765625z M153.03759765625,42.080078125q0-3.41796875,1.171875-4.58984375t3.271484375-1.171875q0.5859375,0,1.2451171875,0.09765625t1.2451171875,0.29296875q3.271484375-0.634765625,6.201171875-0.634765625q4.736328125,0,8.59375,1.66015625q6.201171875,2.63671875,10.25390625,7.8125t5.95703125,12.158203125t1.904296875,14.306640625q0,4.1015625-0.5615234375,8.544921875t-2.1728515625,8.251953125q-1.416015625,3.41796875-3.90625,7.1533203125t-5.6396484375,7.080078125t-6.787109375,5.859375t-7.3486328125,3.3935546875l0,0.390625q0,0.9765625-0.5126953125,1.5869140625t-1.2451171875,0.927734375t-1.6845703125,0.4150390625t-1.7822265625,0.09765625q-0.48828125,0-1.3916015625-0.09765625t-1.7578125-0.3662109375t-1.4404296875-0.7080078125t-0.5859375-1.220703125q0-8.88671875-0.4638671875-17.7978515625t-1.0498046875-17.822265625t-1.0498046875-17.7978515625t-0.4638671875-17.822265625z M162.26611328125,39.58984375q0.48828125,4.6875,0.634765625,9.3505859375t0.439453125,9.3505859375q0.78125,12.109375,1.806640625,24.0966796875t1.220703125,24.0966796875q4.6875-3.076171875,8.0322265625-7.03125t5.4931640625-8.59375t3.1494140625-9.7412109375t1.0009765625-10.5224609375q0-3.90625-0.68359375-8.59375t-2.34375-9.033203125t-4.4677734375-7.861328125t-7.0068359375-5.029296875q-0.87890625-0.29296875-2.1240234375-0.48828125t-3.9794921875-0.1953125q-0.29296875,0-0.5859375,0.09765625t-0.5859375,0.09765625z"/><path fill="#ffffff" d="M207.923828125,63.076171875q0-1.904296875,0.1220703125-5.5908203125t0.3662109375-7.6904296875t0.634765625-7.4951171875t1.123046875-5.0048828125q0.390625-0.78125,1.1962890625-1.0498046875t1.5869140625-0.2685546875q0.48828125,0,1.6357421875,0.2685546875t1.1474609375,1.0498046875q0,1.220703125-0.29296875,4.6142578125t-0.537109375,7.7880859375t-0.341796875,9.130859375l0,2.099609375q0,3.564453125,0.244140625,6.689453125q0.341796875,4.00390625,1.2939453125,6.591796875t2.8564453125,2.587890625q2.587890625,0,4.833984375-1.5380859375t4.1015625-4.00390625t3.3447265625-5.517578125t2.5390625-6.005859375t1.7578125-5.4443359375t1.0009765625-3.90625q0.29296875-1.611328125,0.5126953125-4.296875t0.7080078125-5.2734375t1.7333984375-4.4921875t3.6376953125-1.904296875q1.416015625,0,2.7099609375,0.48828125t1.6845703125,2.099609375q-0.78125,2.978515625-1.318359375,8.2763671875t-0.8544921875,11.1083984375t-0.4638671875,11.2548828125t-0.146484375,8.8623046875q0,3.80859375,0.09765625,9.3017578125t0.341796875,11.3525390625t0.5615234375,11.4013671875t0.7080078125,9.2529296875q0.390625,0.78125,0.390625,1.806640625q0,1.220703125-0.48828125,1.904296875t-1.3427734375,1.025390625t-1.85546875,0.439453125t-1.9287109375,0.09765625q-1.416015625,0-3.1494140625-0.48828125t-2.1240234375-2.001953125q-0.48828125-1.806640625-0.8056640625-4.7607421875t-0.4638671875-6.4453125t-0.244140625-7.2998046875t-0.09765625-7.2998046875t0.048828125-6.494140625t0.048828125-4.9072265625q0-3.7109375,0.146484375-7.2998046875t0.341796875-7.2998046875q-1.220703125,2.490234375-2.8564453125,5.0537109375t-3.7353515625,4.6630859375t-4.6875,3.4423828125t-5.615234375,1.3427734375q-3.90625,0-5.95703125-2.099609375t-2.978515625-5.2001953125t-1.0498046875-6.591796875t-0.1220703125-6.3232421875z M257.51708984375,104.7265625q0.09765625-2.05078125,0.09765625-4.00390625q0-7.080078125,0.5126953125-14.111328125t0.7080078125-14.111328125q0.29296875-8.10546875,0.537109375-16.064453125t0.9765625-16.015625q0.1953125-2.001953125,1.1474609375-2.6123046875t2.8564453125-0.6103515625q0.87890625,0,2.34375,0.341796875t1.46484375,1.66015625q0.68359375,0.09765625,1.3671875,0.09765625q1.025390625,0,2.099609375-0.1953125q1.7578125-0.29296875,3.5888671875-0.6591796875t3.6376953125-0.7080078125t3.466796875-0.341796875q0.390625,0,1.0986328125,0.048828125t1.416015625,0.29296875t1.1962890625,0.6103515625t0.48828125,0.9521484375t-1.1474609375,1.0498046875t-3.0029296875,0.8056640625t-4.00390625,0.5859375t-4.19921875,0.4150390625t-3.6376953125,0.2685546875t-2.2705078125,0.09765625l-0.09765625,18.359375l0.09765625,9.130859375q1.513671875,0,4.541015625-0.09765625q1.220703125-0.048828125,2.44140625-0.048828125q1.85546875,0,3.80859375,0.09765625q3.22265625,0.146484375,5.810546875,0.5859375t3.271484375,1.5625q0,0.68359375-0.7080078125,1.0986328125t-1.5869140625,0.6103515625t-1.7822265625,0.244140625t-1.2939453125,0.048828125q-3.61328125,0-7.275390625-0.146484375t-7.2265625-0.5859375q0,6.005859375-0.3173828125,11.9140625t-0.3173828125,11.9140625q0,2.587890625,0.048828125,5.1025390625t0.5859375,5.0048828125q1.318359375-0.09765625,2.8564453125-0.244140625t3.125-0.3662109375t3.0517578125-0.3662109375t2.5390625-0.146484375q0.5859375,0,1.5869140625,0.146484375t2.05078125,0.48828125t1.806640625,0.8544921875t0.7568359375,1.1962890625q0,0.78125-1.4404296875,1.3916015625t-3.6865234375,0.9765625t-4.9072265625,0.5126953125t-5.1513671875,0.1953125t-4.4921875,0.048828125l-2.83203125,0q-2.685546875,0-3.9306640625-1.0009765625t-1.7333984375-2.6123046875q-0.390625-1.318359375-0.341796875-2.978515625l0-0.68359375z M297.8330078125,108.876953125q0-0.29296875,0.1953125-2.0751953125t0.5126953125-4.345703125t0.7080078125-5.517578125t0.68359375-5.5908203125t0.5126953125-4.638671875t0.2197265625-2.685546875q-0.390625-0.1953125-0.9521484375-0.5615234375t-0.5615234375-0.8544921875q0-0.68359375,0.6591796875-1.0986328125t1.1474609375-0.6103515625q0.1953125-2.490234375,0.48828125-6.93359375t0.9033203125-9.5947265625t1.708984375-10.44921875t2.9052734375-9.619140625t4.345703125-7.0556640625t6.25-2.734375t6.15234375,2.34375t3.9794921875,6.103515625t2.34375,8.349609375t1.220703125,9.130859375t0.5126953125,8.49609375t0.1953125,6.34765625q0.09765625,1.513671875,0.732421875,2.0263671875t1.3916015625,0.7080078125t1.3671875,0.439453125t0.6103515625,1.220703125q0,1.123046875-1.3671875,1.5625t-2.1484375,0.537109375q0.48828125,6.103515625,1.3427734375,12.01171875t2.2705078125,11.9140625q0.1953125,1.123046875,0.537109375,2.2705078125t0.341796875,2.2216796875q0,0.78125-0.537109375,1.2939453125t-1.3916015625,0.8056640625t-1.708984375,0.390625t-1.4404296875,0.09765625q-2.197265625,0-3.7109375-0.830078125t-2.001953125-3.173828125q-1.318359375-6.298828125-2.587890625-13.232421875q-1.07421875-6.005859375-1.07421875-11.669921875q0-0.87890625,0.048828125-1.7578125q-4.1015625,0-8.251953125,0.1953125t-7.958984375,1.46484375q-0.09765625,1.318359375-0.48828125,4.98046875t-0.87890625,7.861328125t-1.0009765625,8.0322265625t-0.6103515625,5.4443359375q-0.09765625,0.68359375-1.0009765625,1.2939453125t-1.953125,0.6591796875t-1.85546875-0.6591796875t-0.8056640625-2.5146484375z M306.9638671875,79.287109375q3.80859375-0.87890625,7.6416015625-1.025390625t7.7392578125-0.341796875q-0.1953125-1.220703125-0.09765625-2.5146484375t0.09765625-2.6123046875q0-2.880859375-0.146484375-6.689453125t-0.439453125-7.71484375t-0.7568359375-7.6904296875t-1.0498046875-6.73828125t-1.2451171875-4.7119140625t-1.4404296875-1.7578125q-1.513671875,0.09765625-2.8564453125,2.6123046875t-2.44140625,6.396484375t-2.001953125,8.69140625t-1.513671875,9.3994140625t-1.0009765625,8.544921875t-0.48828125,6.15234375z M346.84033203125,51.2841796875q-0.09765625-1.2939453125,0.2197265625-2.44140625t1.1962890625-1.904296875t2.978515625-0.7568359375q0.48828125,0,1.1962890625,0.09765625t1.416015625,0.3173828125t1.1474609375,0.6103515625t0.439453125,1.07421875q0,1.806640625,0.1220703125,4.7607421875t0.3173828125,6.15234375t0.3662109375,6.25t0.3173828125,4.9560546875q3.80859375-0.1953125,7.666015625-0.1953125t7.6171875-0.1953125l6.73828125-0.1953125l0-4.833984375q0-8.10546875-0.3173828125-16.2353515625t-1.0986328125-16.2353515625q0-0.5859375,0.48828125-0.9521484375t1.1474609375-0.5615234375t1.3671875-0.244140625t1.0986328125-0.048828125q1.123046875,0,2.4169921875,0.341796875t1.4892578125,1.46484375l0.29296875,2.099609375q1.220703125,8.7890625,1.66015625,17.3828125t0.634765625,17.1875q0.5859375,0.09765625,1.2451171875,0.3173828125t1.3427734375,0.4150390625q0.48828125,0.1953125,1.3916015625,0.5859375t0.9033203125,1.220703125q0,0.78125-0.68359375,1.220703125t-1.5380859375,0.6591796875t-1.66015625,0.2685546875t-1.0009765625,0.048828125q0.09765625,3.61328125,0.09765625,7.2021484375l0,7.2021484375l0,15.771484375l0,8.7890625q0,0.5859375-0.5615234375,1.0498046875t-1.3427734375,0.7568359375t-1.6357421875,0.390625t-1.5380859375,0.09765625t-1.611328125-0.09765625t-1.66015625-0.390625t-1.2939453125-0.732421875t-0.5615234375-1.07421875l0-2.099609375q0.1953125-9.27734375,0.439453125-18.3837890625t0.48828125-18.2861328125q-5.322265625,0.1953125-10.8154296875,0.244140625t-10.9130859375,0.244140625q0.5859375,6.884765625,1.3427734375,13.7451171875t1.5869140625,13.7451171875q0,0.5859375-0.5615234375,1.0498046875t-1.318359375,0.7568359375t-1.611328125,0.390625t-1.5380859375,0.09765625q-1.416015625,0-3.1005859375-0.48828125t-1.8798828125-1.806640625q-0.5859375-5.17578125-1.0986328125-11.42578125t-0.9033203125-12.7685546875t-0.6103515625-12.7685546875t-0.2197265625-11.328125q0-1.220703125-0.09765625-2.5146484375z"/></svg>
